<svg xmlns="http://www.w3.org/2000/svg" style="width:3932.5px;height:5838.25px" id="artboard-svg" width="111" height="111" viewBox="0 0 111 111"><defs><style>.cls-1 { clip-path: url(#clip-Main); } .cls-2 { fill: url(#linear-gradient); } .cls-3 { fill: #fff; } .cls-4 { fill: url(#linear-gradient-2); } .cls-27, .cls-5 { fill-rule: evenodd; } .cls-14, .cls-25, .cls-27, .cls-6 { fill: none; } .cls-6 { stroke: #c9c9c9; opacity: 0.4; } .cls-18, .cls-7 { font-size: 30px; } .cls-18, .cls-24, .cls-26, .cls-28, .cls-29, .cls-30, .cls-7, .cls-9 { font-family: Helvetica; } .cls-8 { fill: #e0e0e0; } .cls-9 { fill: #858583; } .cls-24, .cls-9 { font-size: 31px; } .cls-10, .cls-18 { fill: #e8bb00; } .cls-11 { opacity: 0.12; } .cls-12 { fill: url(#linear-gradient-3); } .cls-13 { fill: url(#linear-gradient-4); } .cls-15 { opacity: 0.1; } .cls-16 { fill: #f0f3f6; } .cls-17 { font-size: 73px; font-family: Helvetica-Bold, Helvetica; font-weight: 700; } .cls-19 { fill: #848484; } .cls-20 { opacity: 0; } .cls-21 { fill: #cfd2d8; } .cls-22 { fill: #cfd2d9; } .cls-23 { fill: #acb4be; } .cls-24 { letter-spacing: -0.02em; } .cls-25, .cls-27 { stroke: #000; } .cls-26 { font-size: 49px; } .cls-28 { font-size: 47px; } .cls-29 { font-size: 48px; } .cls-30 { font-size: 46px; } .cls-31 { fill: #141414; } .cls-32 { fill: #b7b7b7; } .cls-33 { fill: #b4b4b4; } .cls-34 { stroke: none; } .cls-35 { filter: url(#rectangle-33); } .cls-36 { filter: url(#rectangle-32); } .cls-37 { filter: url(#rectangle-31); } .cls-38 { filter: url(#rectangle-30); } .cls-39 { filter: url(#rectangle-29); } .cls-40 { filter: url(#rectangle-28); } .cls-41 { filter: url(#rectangle-27); } .cls-42 { filter: url(#rectangle-26); } .cls-43 { filter: url(#rectangle-25); } .cls-44 { filter: url(#rectangle-24); } .cls-45 { filter: url(#rectangle-23); } .cls-46 { filter: url(#rectangle-22); } .cls-47 { filter: url(#rectangle-21); } .cls-48 { filter: url(#rectangle-20); } .cls-49 { filter: url(#rectangle-19); } .cls-50 { filter: url(#rectangle-18); } .cls-51 { filter: url(#rectangle-17); } .cls-52 { filter: url(#rectangle-16); } .cls-53 { filter: url(#rectangle-15); } .cls-54 { filter: url(#rectangle-14); } .cls-55 { filter: url(#rectangle-13); } .cls-56 { filter: url(#rectangle-12); } .cls-57 { filter: url(#rectangle-11); } .cls-58 { filter: url(#rectangle-10); } .cls-59 { filter: url(#rectangle-9); } .cls-60 { filter: url(#rectangle-8); } .cls-61 { filter: url(#rectangle-7); } .cls-62 { filter: url(#rectangle-6); } .cls-63 { filter: url(#rectangle-5); } .cls-64 { filter: url(#rectangle-4); } .cls-65 { filter: url(#rectangle-3); } .cls-66 { filter: url(#rectangle-2); } .cls-67 { filter: url(#rectangle); } .cls-68 { filter: url(#Path_8); } .cls-69 { filter: url(#iphone); }</style><linearGradient id="linear-gradient" x1=".5" x2=".5" y2="1" gradientUnits="objectBoundingBox"><stop offset="0" stop-color="#e8bb00"/><stop offset="1" stop-color="#fed731"/></linearGradient><filter id="iphone" width="1054" height="1934" x="188" y="95" filterUnits="userSpaceOnUse"><feOffset/><feGaussianBlur result="blur" stdDeviation="36"/><feFlood flood-opacity=".078"/><feComposite in2="blur" operator="in"/><feComposite in="SourceGraphic"/></filter><linearGradient id="linear-gradient-2" x1=".5" x2=".5" y2="1" gradientUnits="objectBoundingBox"><stop offset="0" stop-color="#e7e7e7"/><stop offset="1" stop-color="#efefef"/></linearGradient><linearGradient id="linear-gradient-3" x1=".5" x2=".5" y1="1" gradientUnits="objectBoundingBox"><stop offset="0"/><stop offset=".14" stop-opacity=".631"/><stop offset="1" stop-opacity="0"/></linearGradient><linearGradient id="linear-gradient-4" x1=".5" x2=".5" y1="1" gradientUnits="objectBoundingBox"><stop offset="0" stop-color="#fff" stop-opacity="0"/><stop offset=".23" stop-color="#fff" stop-opacity=".012"/><stop offset=".36" stop-color="#fff" stop-opacity=".039"/><stop offset=".47" stop-color="#fff" stop-opacity=".102"/><stop offset=".57" stop-color="#fff" stop-opacity=".18"/><stop offset=".67" stop-color="#fff" stop-opacity=".278"/><stop offset=".75" stop-color="#fff" stop-opacity=".412"/><stop offset=".83" stop-color="#fff" stop-opacity=".561"/><stop offset=".91" stop-color="#fff" stop-opacity=".741"/><stop offset=".98" stop-color="#fff" stop-opacity=".929"/><stop offset="1" stop-color="#fff"/></linearGradient><filter id="Path_8" width="461.244" height="74" x="379" y="848" filterUnits="userSpaceOnUse"><feOffset/><feGaussianBlur result="blur-2" stdDeviation="3"/><feFlood flood-opacity=".051"/><feComposite in2="blur-2" operator="in"/><feComposite in="SourceGraphic"/></filter><filter id="rectangle" width="176.001" height="85.001" x="908.002" y="2214.003" filterUnits="userSpaceOnUse"><feOffset dy="1"/><feGaussianBlur result="blur-3"/><feFlood flood-opacity=".251"/><feComposite in2="blur-3" operator="in"/><feComposite in="SourceGraphic"/></filter><filter id="rectangle-2" width="289.001" height="85.001" x="608.001" y="2214.003" filterUnits="userSpaceOnUse"><feOffset dy="1"/><feGaussianBlur result="blur-4"/><feFlood flood-opacity=".251"/><feComposite in2="blur-4" operator="in"/><feComposite in="SourceGraphic"/></filter><filter id="rectangle-3" width="80" height="85.001" x="346" y="2214.003" filterUnits="userSpaceOnUse"><feOffset dy="1"/><feGaussianBlur result="blur-5"/><feFlood flood-opacity=".251"/><feComposite in2="blur-5" operator="in"/><feComposite in="SourceGraphic"/></filter><filter id="rectangle-4" width="84" height="85.001" x="1000.003" y="2110.002" filterUnits="userSpaceOnUse"><feOffset dy="1"/><feGaussianBlur result="blur-6"/><feFlood flood-opacity=".251"/><feComposite in2="blur-6" operator="in"/><feComposite in="SourceGraphic"/></filter><filter id="rectangle-5" width="64" height="85.001" x="908.002" y="2110.002" filterUnits="userSpaceOnUse"><feOffset dy="1"/><feGaussianBlur result="blur-7"/><feFlood flood-opacity=".251"/><feComposite in2="blur-7" operator="in"/><feComposite in="SourceGraphic"/></filter><filter id="rectangle-6" width="64" height="85.001" x="833.002" y="2110.002" filterUnits="userSpaceOnUse"><feOffset dy="1"/><feGaussianBlur result="blur-8"/><feFlood flood-opacity=".251"/><feComposite in2="blur-8" operator="in"/><feComposite in="SourceGraphic"/></filter><filter id="rectangle-7" width="64" height="85.001" x="758.002" y="2110.002" filterUnits="userSpaceOnUse"><feOffset dy="1"/><feGaussianBlur result="blur-9"/><feFlood flood-opacity=".251"/><feComposite in2="blur-9" operator="in"/><feComposite in="SourceGraphic"/></filter><filter id="rectangle-8" width="64" height="85.001" x="683.001" y="2110.002" filterUnits="userSpaceOnUse"><feOffset dy="1"/><feGaussianBlur result="blur-10"/><feFlood flood-opacity=".251"/><feComposite in2="blur-10" operator="in"/><feComposite in="SourceGraphic"/></filter><filter id="rectangle-9" width="64" height="85.001" x="608.001" y="2110.002" filterUnits="userSpaceOnUse"><feOffset dy="1"/><feGaussianBlur result="blur-11"/><feFlood flood-opacity=".251"/><feComposite in2="blur-11" operator="in"/><feComposite in="SourceGraphic"/></filter><filter id="rectangle-10" width="64" height="85.001" x="533.001" y="2110.002" filterUnits="userSpaceOnUse"><feOffset dy="1"/><feGaussianBlur result="blur-12"/><feFlood flood-opacity=".251"/><feComposite in2="blur-12" operator="in"/><feComposite in="SourceGraphic"/></filter><filter id="rectangle-11" width="64" height="85.001" x="458" y="2110.002" filterUnits="userSpaceOnUse"><feOffset dy="1"/><feGaussianBlur result="blur-13"/><feFlood flood-opacity=".251"/><feComposite in2="blur-13" operator="in"/><feComposite in="SourceGraphic"/></filter><filter id="rectangle-12" width="84" height="85.001" x="346" y="2110.002" filterUnits="userSpaceOnUse"><feOffset dy="1"/><feGaussianBlur result="blur-14"/><feFlood flood-opacity=".251"/><feComposite in2="blur-14" operator="in"/><feComposite in="SourceGraphic"/></filter><filter id="rectangle-13" width="64" height="85.001" x="983.003" y="2002.001" filterUnits="userSpaceOnUse"><feOffset dy="1"/><feGaussianBlur result="blur-15"/><feFlood flood-opacity=".251"/><feComposite in2="blur-15" operator="in"/><feComposite in="SourceGraphic"/></filter><filter id="rectangle-14" width="64" height="85.001" x="908.002" y="2002.001" filterUnits="userSpaceOnUse"><feOffset dy="1"/><feGaussianBlur result="blur-16"/><feFlood flood-opacity=".251"/><feComposite in2="blur-16" operator="in"/><feComposite in="SourceGraphic"/></filter><filter id="rectangle-15" width="64" height="85.001" x="833.002" y="2002.001" filterUnits="userSpaceOnUse"><feOffset dy="1"/><feGaussianBlur result="blur-17"/><feFlood flood-opacity=".251"/><feComposite in2="blur-17" operator="in"/><feComposite in="SourceGraphic"/></filter><filter id="rectangle-16" width="64" height="85.001" x="758.002" y="2002.001" filterUnits="userSpaceOnUse"><feOffset dy="1"/><feGaussianBlur result="blur-18"/><feFlood flood-opacity=".251"/><feComposite in2="blur-18" operator="in"/><feComposite in="SourceGraphic"/></filter><filter id="rectangle-17" width="64" height="85.001" x="683.001" y="2002.001" filterUnits="userSpaceOnUse"><feOffset dy="1"/><feGaussianBlur result="blur-19"/><feFlood flood-opacity=".251"/><feComposite in2="blur-19" operator="in"/><feComposite in="SourceGraphic"/></filter><filter id="rectangle-18" width="64" height="85.001" x="608.001" y="2002.001" filterUnits="userSpaceOnUse"><feOffset dy="1"/><feGaussianBlur result="blur-20"/><feFlood flood-opacity=".251"/><feComposite in2="blur-20" operator="in"/><feComposite in="SourceGraphic"/></filter><filter id="rectangle-19" width="64" height="85.001" x="533.001" y="2002.001" filterUnits="userSpaceOnUse"><feOffset dy="1"/><feGaussianBlur result="blur-21"/><feFlood flood-opacity=".251"/><feComposite in2="blur-21" operator="in"/><feComposite in="SourceGraphic"/></filter><filter id="rectangle-20" width="64" height="85.001" x="459" y="2002.001" filterUnits="userSpaceOnUse"><feOffset dy="1"/><feGaussianBlur result="blur-22"/><feFlood flood-opacity=".251"/><feComposite in2="blur-22" operator="in"/><feComposite in="SourceGraphic"/></filter><filter id="rectangle-21" width="64" height="85.001" x="384" y="2002.001" filterUnits="userSpaceOnUse"><feOffset dy="1"/><feGaussianBlur result="blur-23"/><feFlood flood-opacity=".251"/><feComposite in2="blur-23" operator="in"/><feComposite in="SourceGraphic"/></filter><filter id="rectangle-22" width="64" height="85.001" x="1020.003" y="1894" filterUnits="userSpaceOnUse"><feOffset dy="1"/><feGaussianBlur result="blur-24"/><feFlood flood-opacity=".251"/><feComposite in2="blur-24" operator="in"/><feComposite in="SourceGraphic"/></filter><filter id="rectangle-23" width="64" height="85.001" x="945.002" y="1894" filterUnits="userSpaceOnUse"><feOffset dy="1"/><feGaussianBlur result="blur-25"/><feFlood flood-opacity=".251"/><feComposite in2="blur-25" operator="in"/><feComposite in="SourceGraphic"/></filter><filter id="rectangle-24" width="64" height="85.001" x="870.002" y="1894" filterUnits="userSpaceOnUse"><feOffset dy="1"/><feGaussianBlur result="blur-26"/><feFlood flood-opacity=".251"/><feComposite in2="blur-26" operator="in"/><feComposite in="SourceGraphic"/></filter><filter id="rectangle-25" width="64" height="85.001" x="795.002" y="1894" filterUnits="userSpaceOnUse"><feOffset dy="1"/><feGaussianBlur result="blur-27"/><feFlood flood-opacity=".251"/><feComposite in2="blur-27" operator="in"/><feComposite in="SourceGraphic"/></filter><filter id="rectangle-26" width="64" height="85.001" x="720.001" y="1894" filterUnits="userSpaceOnUse"><feOffset dy="1"/><feGaussianBlur result="blur-28"/><feFlood flood-opacity=".251"/><feComposite in2="blur-28" operator="in"/><feComposite in="SourceGraphic"/></filter><filter id="rectangle-27" width="64" height="85.001" x="645.001" y="1894" filterUnits="userSpaceOnUse"><feOffset dy="1"/><feGaussianBlur result="blur-29"/><feFlood flood-opacity=".251"/><feComposite in2="blur-29" operator="in"/><feComposite in="SourceGraphic"/></filter><filter id="rectangle-28" width="64" height="85.001" x="570.001" y="1894" filterUnits="userSpaceOnUse"><feOffset dy="1"/><feGaussianBlur result="blur-30"/><feFlood flood-opacity=".251"/><feComposite in2="blur-30" operator="in"/><feComposite in="SourceGraphic"/></filter><filter id="rectangle-29" width="64" height="85.001" x="495.201" y="1894" filterUnits="userSpaceOnUse"><feOffset dy="1"/><feGaussianBlur result="blur-31"/><feFlood flood-opacity=".251"/><feComposite in2="blur-31" operator="in"/><feComposite in="SourceGraphic"/></filter><filter id="rectangle-30" width="64" height="85.001" x="421" y="1894" filterUnits="userSpaceOnUse"><feOffset dy="1"/><feGaussianBlur result="blur-32"/><feFlood flood-opacity=".251"/><feComposite in2="blur-32" operator="in"/><feComposite in="SourceGraphic"/></filter><filter id="rectangle-31" width="64" height="85.001" x="346" y="1894" filterUnits="userSpaceOnUse"><feOffset dy="1"/><feGaussianBlur result="blur-33"/><feFlood flood-opacity=".251"/><feComposite in2="blur-33" operator="in"/><feComposite in="SourceGraphic"/></filter><filter id="rectangle-32" width="64" height="85.001" x="533.001" y="2214.003" filterUnits="userSpaceOnUse"><feOffset dy="1"/><feGaussianBlur result="blur-34"/><feFlood flood-opacity=".251"/><feComposite in2="blur-34" operator="in"/><feComposite in="SourceGraphic"/></filter><filter id="rectangle-33" width="84" height="85.001" x="438" y="2214.003" filterUnits="userSpaceOnUse"><feOffset dy="1"/><feGaussianBlur result="blur-35"/><feFlood flood-opacity=".251"/><feComposite in2="blur-35" operator="in"/><feComposite in="SourceGraphic"/></filter><clipPath id="clip-Main"><path d="M0 0h1430v2123H0z"/></clipPath></defs><g transform="translate(-930 -1225)"><g id="Main" class="cls-1"><g id="Audio" transform="translate(-2039.232 1623.768)"><path id="teal_circle" d="M54.632 0A54.632 54.632 0 1 1 0 54.632 54.632 54.632 0 0 1 54.632 0z" class="cls-10" data-name="teal circle" transform="translate(2970 -398)"/><g id="Group_331" class="cls-11" data-name="Group 331" transform="translate(2970 -398)"><path id="gradient_border_2" d="M3457.632 959.976a53.656 53.656 0 1 1-53.656 53.656 53.656 53.656 0 0 1 53.656-53.656m0-.976a54.632 54.632 0 1 0 54.633 54.632A54.632 54.632 0 0 0 3457.632 959z" class="cls-12" data-name="gradient border 2" transform="translate(-3403.001 -959)"/><path id="gradient_border_1" d="M3457.632 959.976a53.656 53.656 0 1 1-53.656 53.656 53.656 53.656 0 0 1 53.656-53.656m0-.976a54.632 54.632 0 1 0 54.633 54.632A54.632 54.632 0 0 0 3457.632 959z" class="cls-13" data-name="gradient border 1" transform="translate(-3403.001 -959)"/></g><g id="ic_mic_" data-name="ic_mic" transform="translate(2671.583 -424.468)"><path id="rectangle-34" d="M0 0h65.897v65.897H0z" class="cls-14" data-name="rectangle" transform="translate(319.65 47.7)"/><path id="ic_mic_2" d="M343.62 83.649a8.09 8.09 0 0 0 8.237-8.237V58.937a8.237 8.237 0 0 0-16.474 0v16.475a8.446 8.446 0 0 0 8.237 8.237zm14.552-8.237c0 8.237-6.864 14-14.552 14s-14.552-5.766-14.552-14H324.4c0 9.335 7.413 17.024 16.474 18.4v9.061h5.491v-9.065c9.061-1.373 16.474-9.061 16.474-18.4z" class="cls-3" data-name="ic_mic" transform="translate(8.979 5.237)"/></g></g></g><g id="Main" class="cls-1"><g id="Audio" transform="translate(-2039.232 1623.768)"><path id="teal_circle" d="M54.632 0A54.632 54.632 0 1 1 0 54.632 54.632 54.632 0 0 1 54.632 0z" class="cls-10" data-name="teal circle" transform="translate(2970 -398)"/></g></g><g id="Main" class="cls-1"><g id="Audio" transform="translate(-2039.232 1623.768)"><g id="Group_331" class="cls-11" data-name="Group 331" transform="translate(2970 -398)"><path id="gradient_border_2" d="M3457.632 959.976a53.656 53.656 0 1 1-53.656 53.656 53.656 53.656 0 0 1 53.656-53.656m0-.976a54.632 54.632 0 1 0 54.633 54.632A54.632 54.632 0 0 0 3457.632 959z" class="cls-12" data-name="gradient border 2" transform="translate(-3403.001 -959)"/><path id="gradient_border_1" d="M3457.632 959.976a53.656 53.656 0 1 1-53.656 53.656 53.656 53.656 0 0 1 53.656-53.656m0-.976a54.632 54.632 0 1 0 54.633 54.632A54.632 54.632 0 0 0 3457.632 959z" class="cls-13" data-name="gradient border 1" transform="translate(-3403.001 -959)"/></g></g></g><g id="Main" class="cls-1"><g id="Audio" transform="translate(-2039.232 1623.768)"><g id="Group_331" class="cls-11" data-name="Group 331" transform="translate(2970 -398)"><path id="gradient_border_2" d="M3457.632 959.976a53.656 53.656 0 1 1-53.656 53.656 53.656 53.656 0 0 1 53.656-53.656m0-.976a54.632 54.632 0 1 0 54.633 54.632A54.632 54.632 0 0 0 3457.632 959z" class="cls-12" data-name="gradient border 2" transform="translate(-3403.001 -959)"/></g></g></g><g id="Main" class="cls-1"><g id="Audio" transform="translate(-2039.232 1623.768)"><g id="Group_331" class="cls-11" data-name="Group 331" transform="translate(2970 -398)"><path id="gradient_border_1" d="M3457.632 959.976a53.656 53.656 0 1 1-53.656 53.656 53.656 53.656 0 0 1 53.656-53.656m0-.976a54.632 54.632 0 1 0 54.633 54.632A54.632 54.632 0 0 0 3457.632 959z" class="cls-13" data-name="gradient border 1" transform="translate(-3403.001 -959)"/></g></g></g><g id="Main" class="cls-1"><g id="Audio" transform="translate(-2039.232 1623.768)"><g id="ic_mic_" data-name="ic_mic" transform="translate(2671.583 -424.468)"><path id="rectangle-34" d="M0 0h65.897v65.897H0z" class="cls-14" data-name="rectangle" transform="translate(319.65 47.7)"/><path id="ic_mic_2" d="M343.62 83.649a8.09 8.09 0 0 0 8.237-8.237V58.937a8.237 8.237 0 0 0-16.474 0v16.475a8.446 8.446 0 0 0 8.237 8.237zm14.552-8.237c0 8.237-6.864 14-14.552 14s-14.552-5.766-14.552-14H324.4c0 9.335 7.413 17.024 16.474 18.4v9.061h5.491v-9.065c9.061-1.373 16.474-9.061 16.474-18.4z" class="cls-3" data-name="ic_mic" transform="translate(8.979 5.237)"/></g></g></g><g id="Main" class="cls-1"><g id="Audio" transform="translate(-2039.232 1623.768)"><g id="ic_mic_" data-name="ic_mic" transform="translate(2671.583 -424.468)"><path id="rectangle-34" d="M0 0h65.897v65.897H0z" class="cls-14" data-name="rectangle" transform="translate(319.65 47.7)"/></g></g></g><g id="Main" class="cls-1"><g id="Audio" transform="translate(-2039.232 1623.768)"><g id="ic_mic_" data-name="ic_mic" transform="translate(2671.583 -424.468)"><path id="ic_mic_2" d="M343.62 83.649a8.09 8.09 0 0 0 8.237-8.237V58.937a8.237 8.237 0 0 0-16.474 0v16.475a8.446 8.446 0 0 0 8.237 8.237zm14.552-8.237c0 8.237-6.864 14-14.552 14s-14.552-5.766-14.552-14H324.4c0 9.335 7.413 17.024 16.474 18.4v9.061h5.491v-9.065c9.061-1.373 16.474-9.061 16.474-18.4z" class="cls-3" data-name="ic_mic" transform="translate(8.979 5.237)"/></g></g></g></g></svg>