<svg xmlns="http://www.w3.org/2000/svg" xmlns:xlink="http://www.w3.org/1999/xlink" viewBox="0 0 750.003 432.004">
  <defs>
    <style>
      .cls-1 {
        fill: #cfd2d9;
      }

      .cls-2 {
        fill: #acb4be;
      }

      .cls-3 {
        font-size: 31px;
        font-family: SFUIText-Regular, SF UI Text;
        letter-spacing: -0.02em;
      }

      .cls-4 {
        fill: #fff;
      }

      .cls-5, .cls-8 {
        fill: none;
        stroke: #000;
      }

      .cls-6, .cls-8 {
        fill-rule: evenodd;
      }

      .cls-7 {
        font-size: 49px;
      }

      .cls-10, .cls-11, .cls-7, .cls-9 {
        font-family: SFUIDisplay-Regular, SF UI Display;
      }

      .cls-9 {
        font-size: 47px;
      }

      .cls-10 {
        font-size: 48px;
      }

      .cls-11 {
        font-size: 46px;
      }

      .cls-12 {
        filter: url(#rectangle-33);
      }

      .cls-13 {
        filter: url(#rectangle-32);
      }

      .cls-14 {
        filter: url(#rectangle-31);
      }

      .cls-15 {
        filter: url(#rectangle-30);
      }

      .cls-16 {
        filter: url(#rectangle-29);
      }

      .cls-17 {
        filter: url(#rectangle-28);
      }

      .cls-18 {
        filter: url(#rectangle-27);
      }

      .cls-19 {
        filter: url(#rectangle-26);
      }

      .cls-20 {
        filter: url(#rectangle-25);
      }

      .cls-21 {
        filter: url(#rectangle-24);
      }

      .cls-22 {
        filter: url(#rectangle-23);
      }

      .cls-23 {
        filter: url(#rectangle-22);
      }

      .cls-24 {
        filter: url(#rectangle-21);
      }

      .cls-25 {
        filter: url(#rectangle-20);
      }

      .cls-26 {
        filter: url(#rectangle-19);
      }

      .cls-27 {
        filter: url(#rectangle-18);
      }

      .cls-28 {
        filter: url(#rectangle-17);
      }

      .cls-29 {
        filter: url(#rectangle-16);
      }

      .cls-30 {
        filter: url(#rectangle-15);
      }

      .cls-31 {
        filter: url(#rectangle-14);
      }

      .cls-32 {
        filter: url(#rectangle-13);
      }

      .cls-33 {
        filter: url(#rectangle-12);
      }

      .cls-34 {
        filter: url(#rectangle-11);
      }

      .cls-35 {
        filter: url(#rectangle-10);
      }

      .cls-36 {
        filter: url(#rectangle-9);
      }

      .cls-37 {
        filter: url(#rectangle-8);
      }

      .cls-38 {
        filter: url(#rectangle-7);
      }

      .cls-39 {
        filter: url(#rectangle-6);
      }

      .cls-40 {
        filter: url(#rectangle-5);
      }

      .cls-41 {
        filter: url(#rectangle-4);
      }

      .cls-42 {
        filter: url(#rectangle-3);
      }

      .cls-43 {
        filter: url(#rectangle-2);
      }

      .cls-44 {
        filter: url(#rectangle);
      }
    </style>
    <filter id="rectangle" x="568.002" y="340.003" width="176.001" height="85.001" filterUnits="userSpaceOnUse">
      <feOffset dy="1" input="SourceAlpha"/>
      <feGaussianBlur result="blur"/>
      <feFlood flood-opacity="0.251"/>
      <feComposite operator="in" in2="blur"/>
      <feComposite in="SourceGraphic"/>
    </filter>
    <filter id="rectangle-2" x="268.001" y="340.003" width="289.001" height="85.001" filterUnits="userSpaceOnUse">
      <feOffset dy="1" input="SourceAlpha"/>
      <feGaussianBlur result="blur-2"/>
      <feFlood flood-opacity="0.251"/>
      <feComposite operator="in" in2="blur-2"/>
      <feComposite in="SourceGraphic"/>
    </filter>
    <filter id="rectangle-3" x="6" y="340.003" width="80" height="85.001" filterUnits="userSpaceOnUse">
      <feOffset dy="1" input="SourceAlpha"/>
      <feGaussianBlur result="blur-3"/>
      <feFlood flood-opacity="0.251"/>
      <feComposite operator="in" in2="blur-3"/>
      <feComposite in="SourceGraphic"/>
    </filter>
    <filter id="rectangle-4" x="660.003" y="236.002" width="84" height="85.001" filterUnits="userSpaceOnUse">
      <feOffset dy="1" input="SourceAlpha"/>
      <feGaussianBlur result="blur-4"/>
      <feFlood flood-opacity="0.251"/>
      <feComposite operator="in" in2="blur-4"/>
      <feComposite in="SourceGraphic"/>
    </filter>
    <filter id="rectangle-5" x="568.002" y="236.002" width="64" height="85.001" filterUnits="userSpaceOnUse">
      <feOffset dy="1" input="SourceAlpha"/>
      <feGaussianBlur result="blur-5"/>
      <feFlood flood-opacity="0.251"/>
      <feComposite operator="in" in2="blur-5"/>
      <feComposite in="SourceGraphic"/>
    </filter>
    <filter id="rectangle-6" x="493.002" y="236.002" width="64" height="85.001" filterUnits="userSpaceOnUse">
      <feOffset dy="1" input="SourceAlpha"/>
      <feGaussianBlur result="blur-6"/>
      <feFlood flood-opacity="0.251"/>
      <feComposite operator="in" in2="blur-6"/>
      <feComposite in="SourceGraphic"/>
    </filter>
    <filter id="rectangle-7" x="418.002" y="236.002" width="64" height="85.001" filterUnits="userSpaceOnUse">
      <feOffset dy="1" input="SourceAlpha"/>
      <feGaussianBlur result="blur-7"/>
      <feFlood flood-opacity="0.251"/>
      <feComposite operator="in" in2="blur-7"/>
      <feComposite in="SourceGraphic"/>
    </filter>
    <filter id="rectangle-8" x="343.001" y="236.002" width="64" height="85.001" filterUnits="userSpaceOnUse">
      <feOffset dy="1" input="SourceAlpha"/>
      <feGaussianBlur result="blur-8"/>
      <feFlood flood-opacity="0.251"/>
      <feComposite operator="in" in2="blur-8"/>
      <feComposite in="SourceGraphic"/>
    </filter>
    <filter id="rectangle-9" x="268.001" y="236.002" width="64" height="85.001" filterUnits="userSpaceOnUse">
      <feOffset dy="1" input="SourceAlpha"/>
      <feGaussianBlur result="blur-9"/>
      <feFlood flood-opacity="0.251"/>
      <feComposite operator="in" in2="blur-9"/>
      <feComposite in="SourceGraphic"/>
    </filter>
    <filter id="rectangle-10" x="193.001" y="236.002" width="64" height="85.001" filterUnits="userSpaceOnUse">
      <feOffset dy="1" input="SourceAlpha"/>
      <feGaussianBlur result="blur-10"/>
      <feFlood flood-opacity="0.251"/>
      <feComposite operator="in" in2="blur-10"/>
      <feComposite in="SourceGraphic"/>
    </filter>
    <filter id="rectangle-11" x="118" y="236.002" width="64" height="85.001" filterUnits="userSpaceOnUse">
      <feOffset dy="1" input="SourceAlpha"/>
      <feGaussianBlur result="blur-11"/>
      <feFlood flood-opacity="0.251"/>
      <feComposite operator="in" in2="blur-11"/>
      <feComposite in="SourceGraphic"/>
    </filter>
    <filter id="rectangle-12" x="6" y="236.002" width="84" height="85.001" filterUnits="userSpaceOnUse">
      <feOffset dy="1" input="SourceAlpha"/>
      <feGaussianBlur result="blur-12"/>
      <feFlood flood-opacity="0.251"/>
      <feComposite operator="in" in2="blur-12"/>
      <feComposite in="SourceGraphic"/>
    </filter>
    <filter id="rectangle-13" x="643.003" y="128.001" width="64" height="85.001" filterUnits="userSpaceOnUse">
      <feOffset dy="1" input="SourceAlpha"/>
      <feGaussianBlur result="blur-13"/>
      <feFlood flood-opacity="0.251"/>
      <feComposite operator="in" in2="blur-13"/>
      <feComposite in="SourceGraphic"/>
    </filter>
    <filter id="rectangle-14" x="568.002" y="128.001" width="64" height="85.001" filterUnits="userSpaceOnUse">
      <feOffset dy="1" input="SourceAlpha"/>
      <feGaussianBlur result="blur-14"/>
      <feFlood flood-opacity="0.251"/>
      <feComposite operator="in" in2="blur-14"/>
      <feComposite in="SourceGraphic"/>
    </filter>
    <filter id="rectangle-15" x="493.002" y="128.001" width="64" height="85.001" filterUnits="userSpaceOnUse">
      <feOffset dy="1" input="SourceAlpha"/>
      <feGaussianBlur result="blur-15"/>
      <feFlood flood-opacity="0.251"/>
      <feComposite operator="in" in2="blur-15"/>
      <feComposite in="SourceGraphic"/>
    </filter>
    <filter id="rectangle-16" x="418.002" y="128.001" width="64" height="85.001" filterUnits="userSpaceOnUse">
      <feOffset dy="1" input="SourceAlpha"/>
      <feGaussianBlur result="blur-16"/>
      <feFlood flood-opacity="0.251"/>
      <feComposite operator="in" in2="blur-16"/>
      <feComposite in="SourceGraphic"/>
    </filter>
    <filter id="rectangle-17" x="343.001" y="128.001" width="64" height="85.001" filterUnits="userSpaceOnUse">
      <feOffset dy="1" input="SourceAlpha"/>
      <feGaussianBlur result="blur-17"/>
      <feFlood flood-opacity="0.251"/>
      <feComposite operator="in" in2="blur-17"/>
      <feComposite in="SourceGraphic"/>
    </filter>
    <filter id="rectangle-18" x="268.001" y="128.001" width="64" height="85.001" filterUnits="userSpaceOnUse">
      <feOffset dy="1" input="SourceAlpha"/>
      <feGaussianBlur result="blur-18"/>
      <feFlood flood-opacity="0.251"/>
      <feComposite operator="in" in2="blur-18"/>
      <feComposite in="SourceGraphic"/>
    </filter>
    <filter id="rectangle-19" x="193.001" y="128.001" width="64" height="85.001" filterUnits="userSpaceOnUse">
      <feOffset dy="1" input="SourceAlpha"/>
      <feGaussianBlur result="blur-19"/>
      <feFlood flood-opacity="0.251"/>
      <feComposite operator="in" in2="blur-19"/>
      <feComposite in="SourceGraphic"/>
    </filter>
    <filter id="rectangle-20" x="119" y="128.001" width="64" height="85.001" filterUnits="userSpaceOnUse">
      <feOffset dy="1" input="SourceAlpha"/>
      <feGaussianBlur result="blur-20"/>
      <feFlood flood-opacity="0.251"/>
      <feComposite operator="in" in2="blur-20"/>
      <feComposite in="SourceGraphic"/>
    </filter>
    <filter id="rectangle-21" x="44" y="128.001" width="64" height="85.001" filterUnits="userSpaceOnUse">
      <feOffset dy="1" input="SourceAlpha"/>
      <feGaussianBlur result="blur-21"/>
      <feFlood flood-opacity="0.251"/>
      <feComposite operator="in" in2="blur-21"/>
      <feComposite in="SourceGraphic"/>
    </filter>
    <filter id="rectangle-22" x="680.003" y="20" width="64" height="85.001" filterUnits="userSpaceOnUse">
      <feOffset dy="1" input="SourceAlpha"/>
      <feGaussianBlur result="blur-22"/>
      <feFlood flood-opacity="0.251"/>
      <feComposite operator="in" in2="blur-22"/>
      <feComposite in="SourceGraphic"/>
    </filter>
    <filter id="rectangle-23" x="605.002" y="20" width="64" height="85.001" filterUnits="userSpaceOnUse">
      <feOffset dy="1" input="SourceAlpha"/>
      <feGaussianBlur result="blur-23"/>
      <feFlood flood-opacity="0.251"/>
      <feComposite operator="in" in2="blur-23"/>
      <feComposite in="SourceGraphic"/>
    </filter>
    <filter id="rectangle-24" x="530.002" y="20" width="64" height="85.001" filterUnits="userSpaceOnUse">
      <feOffset dy="1" input="SourceAlpha"/>
      <feGaussianBlur result="blur-24"/>
      <feFlood flood-opacity="0.251"/>
      <feComposite operator="in" in2="blur-24"/>
      <feComposite in="SourceGraphic"/>
    </filter>
    <filter id="rectangle-25" x="455.002" y="20" width="64" height="85.001" filterUnits="userSpaceOnUse">
      <feOffset dy="1" input="SourceAlpha"/>
      <feGaussianBlur result="blur-25"/>
      <feFlood flood-opacity="0.251"/>
      <feComposite operator="in" in2="blur-25"/>
      <feComposite in="SourceGraphic"/>
    </filter>
    <filter id="rectangle-26" x="380.001" y="20" width="64" height="85.001" filterUnits="userSpaceOnUse">
      <feOffset dy="1" input="SourceAlpha"/>
      <feGaussianBlur result="blur-26"/>
      <feFlood flood-opacity="0.251"/>
      <feComposite operator="in" in2="blur-26"/>
      <feComposite in="SourceGraphic"/>
    </filter>
    <filter id="rectangle-27" x="305.001" y="20" width="64" height="85.001" filterUnits="userSpaceOnUse">
      <feOffset dy="1" input="SourceAlpha"/>
      <feGaussianBlur result="blur-27"/>
      <feFlood flood-opacity="0.251"/>
      <feComposite operator="in" in2="blur-27"/>
      <feComposite in="SourceGraphic"/>
    </filter>
    <filter id="rectangle-28" x="230.001" y="20" width="64" height="85.001" filterUnits="userSpaceOnUse">
      <feOffset dy="1" input="SourceAlpha"/>
      <feGaussianBlur result="blur-28"/>
      <feFlood flood-opacity="0.251"/>
      <feComposite operator="in" in2="blur-28"/>
      <feComposite in="SourceGraphic"/>
    </filter>
    <filter id="rectangle-29" x="155.201" y="20" width="64" height="85.001" filterUnits="userSpaceOnUse">
      <feOffset dy="1" input="SourceAlpha"/>
      <feGaussianBlur result="blur-29"/>
      <feFlood flood-opacity="0.251"/>
      <feComposite operator="in" in2="blur-29"/>
      <feComposite in="SourceGraphic"/>
    </filter>
    <filter id="rectangle-30" x="81" y="20" width="64" height="85.001" filterUnits="userSpaceOnUse">
      <feOffset dy="1" input="SourceAlpha"/>
      <feGaussianBlur result="blur-30"/>
      <feFlood flood-opacity="0.251"/>
      <feComposite operator="in" in2="blur-30"/>
      <feComposite in="SourceGraphic"/>
    </filter>
    <filter id="rectangle-31" x="6" y="20" width="64" height="85.001" filterUnits="userSpaceOnUse">
      <feOffset dy="1" input="SourceAlpha"/>
      <feGaussianBlur result="blur-31"/>
      <feFlood flood-opacity="0.251"/>
      <feComposite operator="in" in2="blur-31"/>
      <feComposite in="SourceGraphic"/>
    </filter>
    <filter id="rectangle-32" x="193.001" y="340.003" width="64" height="85.001" filterUnits="userSpaceOnUse">
      <feOffset dy="1" input="SourceAlpha"/>
      <feGaussianBlur result="blur-32"/>
      <feFlood flood-opacity="0.251"/>
      <feComposite operator="in" in2="blur-32"/>
      <feComposite in="SourceGraphic"/>
    </filter>
    <filter id="rectangle-33" x="98" y="340.003" width="84" height="85.001" filterUnits="userSpaceOnUse">
      <feOffset dy="1" input="SourceAlpha"/>
      <feGaussianBlur result="blur-33"/>
      <feFlood flood-opacity="0.251"/>
      <feComposite operator="in" in2="blur-33"/>
      <feComposite in="SourceGraphic"/>
    </filter>
  </defs>
  <g id="group-72" transform="translate(-3191 -198)">
    <path id="Background" class="cls-1" d="M0,0H750V432H0Z" transform="translate(3191 198)"/>
    <g id="Return" transform="translate(3759.002 538.003)">
      <g class="cls-44" transform="matrix(1, 0, 0, 1, -568, -340)">
        <rect id="rectangle-34" data-name="rectangle" class="cls-2" width="176.001" height="84.001" rx="5" transform="translate(568 340)"/>
      </g>
      <text id="return-2" data-name="return" class="cls-3" transform="translate(42.5 52)"><tspan x="0" y="0">return</tspan></text>
    </g>
    <g id="Space" transform="translate(3459.001 538.003)">
      <g class="cls-43" transform="matrix(1, 0, 0, 1, -268, -340)">
        <rect id="rectangle-35" data-name="rectangle" class="cls-4" width="289.001" height="84.001" rx="5" transform="translate(268 340)"/>
      </g>
      <text id="space-2" data-name="space" class="cls-3" transform="translate(100.6 52.6)"><tspan x="0" y="0">space</tspan></text>
    </g>
    <g id="_123" data-name="123" transform="translate(3197 538.003)">
      <g class="cls-42" transform="matrix(1, 0, 0, 1, -6, -340)">
        <rect id="rectangle-36" data-name="rectangle" class="cls-2" width="80" height="84.001" rx="5" transform="translate(6 340)"/>
      </g>
      <text id="_123-2" data-name="123" class="cls-3" transform="translate(12.804 52)"><tspan x="0" y="0">123</tspan></text>
    </g>
    <g id="Backspace" transform="translate(3851.003 434.002)">
      <g class="cls-41" transform="matrix(1, 0, 0, 1, -660, -236)">
        <rect id="rectangle-37" data-name="rectangle" class="cls-2" width="84" height="84.001" rx="5" transform="translate(660 236)"/>
      </g>
      <path id="Path" class="cls-5" d="M54,17.134V40.866A4.07,4.07,0,0,1,50,45H26L10,29,26,13H50A4.072,4.072,0,0,1,54,17.134Z" transform="translate(10 13)"/>
      <path id="Path-2" data-name="Path" class="cls-6" d="M27.389,23.475l-6.364-6.364-1.414,1.414,6.364,6.364-6.364,6.364,1.414,1.414L27.389,26.3l6.364,6.364,1.414-1.414L28.8,24.889l6.364-6.364-1.414-1.414Z" transform="translate(19.611 17.111)"/>
    </g>
    <g id="m" transform="translate(3759.002 434.002)">
      <g id="Key">
        <g class="cls-40" transform="matrix(1, 0, 0, 1, -568, -236)">
          <rect id="rectangle-38" data-name="rectangle" class="cls-4" width="64" height="84.001" rx="5" transform="translate(568 236)"/>
        </g>
      </g>
      <text id="m-2" data-name="m" class="cls-7" transform="translate(10.747 56)"><tspan x="0" y="0">m</tspan></text>
    </g>
    <g id="n" transform="translate(3684.002 434.002)">
      <g id="Key-2" data-name="Key">
        <g class="cls-39" transform="matrix(1, 0, 0, 1, -493, -236)">
          <rect id="rectangle-39" data-name="rectangle" class="cls-4" width="64" height="84.001" rx="5" transform="translate(493 236)"/>
        </g>
      </g>
      <text id="n-2" data-name="n" class="cls-7" transform="translate(18 56)"><tspan x="0" y="0">n</tspan></text>
    </g>
    <g id="b" transform="translate(3609.002 434.002)">
      <g id="Key-3" data-name="Key">
        <g class="cls-38" transform="matrix(1, 0, 0, 1, -418, -236)">
          <rect id="rectangle-40" data-name="rectangle" class="cls-4" width="64" height="84.001" rx="5" transform="translate(418 236)"/>
        </g>
      </g>
      <text id="b-2" data-name="b" class="cls-7" transform="translate(17.144 56)"><tspan x="0" y="0">b</tspan></text>
    </g>
    <g id="v" transform="translate(3534.001 434.002)">
      <g id="Key-4" data-name="Key">
        <g class="cls-37" transform="matrix(1, 0, 0, 1, -343, -236)">
          <path id="rectangle-41" data-name="rectangle" class="cls-4" d="M10,0H54A10,10,0,0,1,64,10V74A10,10,0,0,1,54,84H10A10,10,0,0,1,0,74V10A10,10,0,0,1,10,0Z" transform="translate(343 236)"/>
        </g>
      </g>
      <text id="v-2" data-name="v" class="cls-7" transform="translate(18.95 56)"><tspan x="0" y="0">v</tspan></text>
    </g>
    <g id="c" transform="translate(3459.001 434.002)">
      <g id="Key-5" data-name="Key">
        <g class="cls-36" transform="matrix(1, 0, 0, 1, -268, -236)">
          <rect id="rectangle-42" data-name="rectangle" class="cls-4" width="64" height="84.001" rx="5" transform="translate(268 236)"/>
        </g>
      </g>
      <text id="c-2" data-name="c" class="cls-7" transform="translate(18.511 56)"><tspan x="0" y="0">c</tspan></text>
    </g>
    <g id="x" transform="translate(3384.001 434.002)">
      <g id="Key-6" data-name="Key">
        <g class="cls-35" transform="matrix(1, 0, 0, 1, -193, -236)">
          <rect id="rectangle-43" data-name="rectangle" class="cls-4" width="64" height="84.001" rx="5" transform="translate(193 236)"/>
        </g>
      </g>
      <text id="x-2" data-name="x" class="cls-7" transform="translate(19.365 56)"><tspan x="0" y="0">x</tspan></text>
    </g>
    <g id="z" transform="translate(3309 434.002)">
      <g id="Key-7" data-name="Key">
        <g class="cls-34" transform="matrix(1, 0, 0, 1, -118, -236)">
          <rect id="rectangle-44" data-name="rectangle" class="cls-4" width="64" height="84.001" rx="5" transform="translate(118 236)"/>
        </g>
      </g>
      <text id="z-2" data-name="z" class="cls-7" transform="translate(19.024 56)"><tspan x="0" y="0">z</tspan></text>
    </g>
    <g id="Shift" transform="translate(3197 434.002)">
      <g class="cls-33" transform="matrix(1, 0, 0, 1, -6, -236)">
        <path id="rectangle-45" data-name="rectangle" class="cls-2" d="M10,0H74A10,10,0,0,1,84,10V74A10,10,0,0,1,74,84H10A10,10,0,0,1,0,74V10A10,10,0,0,1,10,0Z" transform="translate(6 236)"/>
      </g>
      <path id="Path-2458" class="cls-8" d="M38.29,31.718l8.823.014c1.1,0,1.358-.63.576-1.412L30.955,13.587a2,2,0,0,0-2.833,0L11.457,30.256c-.791.791-.527,1.42.573,1.421l8.26.013v8.36a4,4,0,0,0,3.995,4h10.01a4,4,0,0,0,3.995-4V31.718Z" transform="translate(11 13)"/>
    </g>
    <g id="l" transform="translate(3834.003 326.001)">
      <g class="cls-32" transform="matrix(1, 0, 0, 1, -643, -128)">
        <rect id="rectangle-46" data-name="rectangle" class="cls-4" width="64" height="84.001" rx="5" transform="translate(643 128)"/>
      </g>
      <text id="l-2" data-name="l" class="cls-7" transform="translate(26.201 56)"><tspan x="0" y="0">l</tspan></text>
    </g>
    <g id="k" transform="translate(3759.002 326.001)">
      <g id="Key-8" data-name="Key">
        <g class="cls-31" transform="matrix(1, 0, 0, 1, -568, -128)">
          <rect id="rectangle-47" data-name="rectangle" class="cls-4" width="64" height="84.001" rx="5" transform="translate(568 128)"/>
        </g>
      </g>
      <text id="k-2" data-name="k" class="cls-7" transform="translate(18.426 56)"><tspan x="0" y="0">k</tspan></text>
    </g>
    <g id="j" transform="translate(3684.002 326.001)">
      <g id="Key-9" data-name="Key">
        <g class="cls-30" transform="matrix(1, 0, 0, 1, -493, -128)">
          <rect id="rectangle-48" data-name="rectangle" class="cls-4" width="64" height="84.001" rx="5" transform="translate(493 128)"/>
        </g>
      </g>
      <text id="j-2" data-name="j" class="cls-9" transform="translate(27.8 54)"><tspan x="0" y="0">j</tspan></text>
    </g>
    <g id="h" transform="translate(3609.002 326.001)">
      <g id="Key-10" data-name="Key">
        <g class="cls-29" transform="matrix(1, 0, 0, 1, -418, -128)">
          <rect id="rectangle-49" data-name="rectangle" class="cls-4" width="64" height="84.001" rx="5" transform="translate(418 128)"/>
        </g>
      </g>
      <text id="h-2" data-name="h" class="cls-7" transform="translate(17.656 56)"><tspan x="0" y="0">h</tspan></text>
    </g>
    <g id="g" transform="translate(3534.001 326.001)">
      <g class="cls-28" transform="matrix(1, 0, 0, 1, -343, -128)">
        <rect id="rectangle-50" data-name="rectangle" class="cls-4" width="64" height="84.001" rx="5" transform="translate(343 128)"/>
      </g>
      <text id="g-2" data-name="g" class="cls-7" transform="translate(18 56)"><tspan x="0" y="0">g</tspan></text>
    </g>
    <g id="f" transform="translate(3459.001 326.001)">
      <g id="Key-11" data-name="Key">
        <g class="cls-27" transform="matrix(1, 0, 0, 1, -268, -128)">
          <path id="rectangle-51" data-name="rectangle" class="cls-4" d="M10,0H54A10,10,0,0,1,64,10V74A10,10,0,0,1,54,84H10A10,10,0,0,1,0,74V10A10,10,0,0,1,10,0Z" transform="translate(268 128)"/>
        </g>
      </g>
      <text id="f-2" data-name="f" class="cls-10" transform="translate(23.455 55)"><tspan x="0" y="0">f</tspan></text>
    </g>
    <g id="d" transform="translate(3384.001 326.001)">
      <g id="Key-12" data-name="Key">
        <g class="cls-26" transform="matrix(1, 0, 0, 1, -193, -128)">
          <rect id="rectangle-52" data-name="rectangle" class="cls-4" width="64" height="84.001" rx="5" transform="translate(193 128)"/>
        </g>
      </g>
      <text id="d-2" data-name="d" class="cls-7" transform="translate(17.144 56)"><tspan x="0" y="0">d</tspan></text>
    </g>
    <g id="s" transform="translate(3310 326.001)">
      <g id="Key-13" data-name="Key">
        <g class="cls-25" transform="matrix(1, 0, 0, 1, -119, -128)">
          <rect id="rectangle-53" data-name="rectangle" class="cls-4" width="64" height="84.001" rx="5" transform="translate(119 128)"/>
        </g>
      </g>
      <text id="s-2" data-name="s" class="cls-7" transform="translate(19.414 56)"><tspan x="0" y="0">s</tspan></text>
    </g>
    <g id="a" transform="translate(3235 326.001)">
      <g class="cls-24" transform="matrix(1, 0, 0, 1, -44, -128)">
        <rect id="rectangle-54" data-name="rectangle" class="cls-4" width="64" height="84.001" rx="5" transform="translate(44 128)"/>
      </g>
      <text id="a-2" data-name="a" class="cls-7" transform="translate(18.206 56)"><tspan x="0" y="0">a</tspan></text>
    </g>
    <g id="p" transform="translate(3871.003 218)">
      <g class="cls-23" transform="matrix(1, 0, 0, 1, -680, -20)">
        <rect id="rectangle-55" data-name="rectangle" class="cls-4" width="64" height="84.001" rx="5" transform="translate(680 20)"/>
      </g>
      <text id="p-2" data-name="p" class="cls-7" transform="translate(17.266 56)"><tspan x="0" y="0">p</tspan></text>
    </g>
    <g id="o" transform="translate(3796.002 218)">
      <g class="cls-22" transform="matrix(1, 0, 0, 1, -605, -20)">
        <rect id="rectangle-56" data-name="rectangle" class="cls-4" width="64" height="84.001" rx="5" transform="translate(605 20)"/>
      </g>
      <text id="o-2" data-name="o" class="cls-7" transform="translate(18.23 56)"><tspan x="0" y="0">o</tspan></text>
    </g>
    <g id="i" transform="translate(3721.002 218)">
      <g id="Key-14" data-name="Key" transform="translate(0)">
        <g class="cls-21" transform="matrix(1, 0, 0, 1, -530, -20)">
          <rect id="rectangle-57" data-name="rectangle" class="cls-4" width="64" height="84.001" rx="5" transform="translate(530 20)"/>
        </g>
      </g>
      <text id="i-2" data-name="i" class="cls-7" transform="translate(27.348 56)"><tspan x="0" y="0">i</tspan></text>
    </g>
    <g id="u" transform="translate(3646.002 218)">
      <g id="Key-15" data-name="Key">
        <g class="cls-20" transform="matrix(1, 0, 0, 1, -455, -20)">
          <rect id="rectangle-58" data-name="rectangle" class="cls-4" width="64" height="84.001" rx="5" transform="translate(455 20)"/>
        </g>
      </g>
      <text id="u-2" data-name="u" class="cls-7" transform="translate(17.4 56)"><tspan x="0" y="0">u</tspan></text>
    </g>
    <g id="y" transform="translate(3571.001 218)">
      <g class="cls-19" transform="matrix(1, 0, 0, 1, -380, -20)">
        <rect id="rectangle-59" data-name="rectangle" class="cls-4" width="64" height="84.001" rx="5" transform="translate(380 20)"/>
      </g>
      <text id="y-2" data-name="y" class="cls-7" transform="translate(18.6 56)"><tspan x="0" y="0">y</tspan></text>
    </g>
    <g id="t" transform="translate(3496.001 218)">
      <g class="cls-18" transform="matrix(1, 0, 0, 1, -305, -20)">
        <rect id="rectangle-60" data-name="rectangle" class="cls-4" width="64" height="84.001" rx="5" transform="translate(305 20)"/>
      </g>
      <text id="t-2" data-name="t" class="cls-10" transform="translate(23.418 55)"><tspan x="0" y="0">t</tspan></text>
    </g>
    <g id="r" transform="translate(3421.001 218)">
      <g class="cls-17" transform="matrix(1, 0, 0, 1, -230, -20)">
        <rect id="rectangle-61" data-name="rectangle" class="cls-4" width="64" height="84.001" rx="5" transform="translate(230 20)"/>
      </g>
      <text id="r-2" data-name="r" class="cls-11" transform="translate(24 53)"><tspan x="0" y="0">r</tspan></text>
    </g>
    <g id="e" transform="translate(3346.201 218)">
      <g class="cls-16" transform="matrix(1, 0, 0, 1, -155.2, -20)">
        <rect id="rectangle-62" data-name="rectangle" class="cls-4" width="64" height="84.001" rx="5" transform="translate(155.2 20)"/>
      </g>
      <text id="e-2" data-name="e" class="cls-7" transform="translate(18.8 56)"><tspan x="0" y="0">e</tspan></text>
    </g>
    <g id="w" transform="translate(3272 218)">
      <g class="cls-15" transform="matrix(1, 0, 0, 1, -81, -20)">
        <rect id="rectangle-63" data-name="rectangle" class="cls-4" width="64" height="84.001" rx="5" transform="translate(81 20)"/>
      </g>
      <text id="w-2" data-name="w" class="cls-7" transform="translate(13.14 56)"><tspan x="0" y="0">w</tspan></text>
    </g>
    <g id="q" transform="translate(3197 218)">
      <g class="cls-14" transform="matrix(1, 0, 0, 1, -6, -20)">
        <rect id="rectangle-64" data-name="rectangle" class="cls-4" width="64" height="84.001" rx="5" transform="translate(6 20)"/>
      </g>
      <text id="q-2" data-name="q" class="cls-7" transform="translate(17.4 54.601)"><tspan x="0" y="0">q</tspan></text>
    </g>
    <g class="cls-13" transform="matrix(1, 0, 0, 1, 3191, 198)">
      <path id="rectangle-65" data-name="rectangle" class="cls-4" d="M7.619,0H56.381C60.589,0,64,4.477,64,10V74c0,5.523-3.411,10-7.619,10H7.619C3.411,84,0,79.524,0,74V10C0,4.477,3.411,0,7.619,0Z" transform="translate(193 340)"/>
    </g>
    <g id="group-134" transform="translate(3405.001 561.004)">
      <path id="Rectangle-1209" class="cls-5" d="M22,7.094v7.873a10,10,0,0,1-10,10H10A10,10,0,0,1,0,14.961V7.031" transform="translate(0 7.031)"/>
      <path id="Shape" class="cls-6" d="M4,6.993H4V21.007a5,5,0,0,0,10,0V6.993a5,5,0,0,0-10,0Zm-2,0a7,7,0,0,1,14,0V21.007a7,7,0,0,1-14,0V6.993Z" transform="translate(2 0)"/>
      <path id="Shape-2" data-name="Shape" class="cls-6" d="M5,15.5v7.876H7V15.5Z" transform="translate(5 15.5)"/>
      <path id="Shape-3" data-name="Shape" class="cls-6" d="M2,21H16V19H2Z" transform="translate(2 19)"/>
    </g>
    <g id="Language" transform="translate(3289 538.003)">
      <g class="cls-12" transform="matrix(1, 0, 0, 1, -98, -340)">
        <path id="rectangle-66" data-name="rectangle" class="cls-2" d="M10,0H74A10,10,0,0,1,84,10V74A10,10,0,0,1,74,84H10A10,10,0,0,1,0,74V10A10,10,0,0,1,10,0Z" transform="translate(98 340)"/>
      </g>
      <g id="Key-16" data-name="Key" transform="translate(22 22)">
        <path id="Shape-4" data-name="Shape" class="cls-6" d="M31,11A20,20,0,1,0,51,31,20,20,0,0,0,31,11Zm-.87,20.87v8.024a37.665,37.665,0,0,0-6.8.758,33.4,33.4,0,0,1-1.356-8.782Zm-8.152-1.739a33.365,33.365,0,0,1,1.356-8.782,37.587,37.587,0,0,0,6.8.758v8.024Zm9.891,1.73h8.152a33.419,33.419,0,0,1-1.356,8.79,37.587,37.587,0,0,0-6.8-.758V31.861Zm0-1.73V22.107a37.665,37.665,0,0,0,6.8-.758,33.4,33.4,0,0,1,1.356,8.782Zm8.138-9.093a32.309,32.309,0,0,0,5.35-1.826,18.507,18.507,0,0,1,4.207,10.919H41.411a34.234,34.234,0,0,0-1.4-9.093Zm4.383-2.911a31.41,31.41,0,0,1-4.808,1.564,16.8,16.8,0,0,0-4.1-6.731,18.592,18.592,0,0,1,8.911,5.167Zm-6.164,1.9a36.679,36.679,0,0,1-6.358.671v-8.21c2.575.532,4.863,3.411,6.358,7.538Zm-8.1-7.538V20.7a36.87,36.87,0,0,1-6.359-.671c1.5-4.127,3.784-7.006,6.359-7.538Zm-3.61.473a16.8,16.8,0,0,0-4.1,6.731,31.379,31.379,0,0,1-4.808-1.564,18.592,18.592,0,0,1,8.911-5.167Zm-9.878,6.252a32.336,32.336,0,0,0,5.35,1.826,34.275,34.275,0,0,0-1.4,9.093H12.435a18.51,18.51,0,0,1,4.207-10.919ZM20.589,31.87a34.33,34.33,0,0,0,1.4,9.095,32.307,32.307,0,0,0-5.35,1.824A18.507,18.507,0,0,1,12.435,31.87Zm-2.98,12a31.41,31.41,0,0,1,4.808-1.564,16.8,16.8,0,0,0,4.1,6.731,18.592,18.592,0,0,1-8.911-5.167Zm6.163-1.9a36.681,36.681,0,0,1,6.359-.671v8.211c-2.575-.534-4.863-3.413-6.359-7.54Zm8.1,7.54V41.3a36.851,36.851,0,0,1,6.358.671c-1.5,4.127-3.783,7.006-6.358,7.54Zm3.61-.475a16.8,16.8,0,0,0,4.1-6.731,31.379,31.379,0,0,1,4.808,1.564,18.592,18.592,0,0,1-8.911,5.167Zm9.878-6.252a32.334,32.334,0,0,0-5.35-1.824,34.361,34.361,0,0,0,1.4-9.1h8.154a18.535,18.535,0,0,1-4.207,10.928Z" transform="translate(-11 -11)"/>
      </g>
    </g>
  </g>
</svg>
